<svg viewBox="0 0 30 30" xmlns="http://www.w3.org/2000/svg" width="100%">
<!-- The spritesheet selectively includes assets from Font Awesome Icons | https://fontawesome.com/ -->

<defs>
  <style>
    g {
      display: none;
    }
    g:target {
      display: inline;
    }
  </style>
</defs>


<g id="fa-twitter">
    <!--! Font Awesome Free 6.3.0 by @fontawesome - https://fontawesome.com License - https://fontawesome.com/license/free (Icons: CC BY 4.0, Fonts: SIL OFL 1.1, Code: MIT License) Copyright 2023 Fonticons, Inc. -->
    <path d="M26.9162 8.88963C26.9353 9.15611 26.9353 9.42265 26.9353 9.68914C26.9353 17.8173 20.7487 27.1828 9.44162 27.1828C5.95811 27.1828 2.72209 26.1738 0 24.4227C0.494941 24.4797 0.970781 24.4988 1.48477 24.4988C4.35908 24.4988 7.00506 23.528 9.11801 21.8719C6.41496 21.8148 4.14973 20.0445 3.36926 17.6079C3.75 17.665 4.13068 17.7031 4.53047 17.7031C5.08248 17.7031 5.63455 17.6269 6.14848 17.4937C3.33123 16.9226 1.21822 14.448 1.21822 11.4594V11.3833C2.03672 11.8402 2.98857 12.1257 3.99738 12.1637C2.34129 11.0596 1.25631 9.17515 1.25631 7.04316C1.25631 5.90105 1.56082 4.8541 2.09385 3.94039C5.12051 7.67135 9.67002 10.1078 14.7715 10.3744C14.6763 9.91754 14.6192 9.4417 14.6192 8.9658C14.6192 5.57744 17.3603 2.81732 20.7677 2.81732C22.538 2.81732 24.1369 3.5597 25.2601 4.75894C26.6496 4.49246 27.9821 3.97847 29.1623 3.27418C28.7054 4.70187 27.7346 5.90111 26.4593 6.66248C27.6966 6.52929 28.8959 6.18658 29.9999 5.71074C29.1625 6.92896 28.1154 8.01394 26.9162 8.88963Z" fill="currentColor"/>
</g>

<g id="fa-facebook">
    <!--! Font Awesome Free 6.3.0 by @fontawesome - https://fontawesome.com License - https://fontawesome.com/license/free (Icons: CC BY 4.0, Fonts: SIL OFL 1.1, Code: MIT License) Copyright 2023 Fonticons, Inc. -->
   <path d="M30 15C30 6.71371 23.2863 0 15 0C6.71371 0 0 6.71371 0 15C0 22.4867 5.48528 28.6923 12.6562 29.8185V19.3361H8.84577V15H12.6562V11.6952C12.6562 7.93609 14.8942 5.85968 18.3218 5.85968C19.9633 5.85968 21.6798 6.15242 21.6798 6.15242V9.84194H19.7879C17.925 9.84194 17.3437 10.9984 17.3437 12.1845V15H21.5038L20.8385 19.3361H17.3437V29.8185C24.5147 28.6923 30 22.4867 30 15Z" fill="currentColor"/>
</g>

<g id="fa-linkedin">
    <!--! Font Awesome Free 6.3.0 by @fontawesome - https://fontawesome.com License - https://fontawesome.com/license/free (Icons: CC BY 4.0, Fonts: SIL OFL 1.1, Code: MIT License) Copyright 2023 Fonticons, Inc. -->
    <path d="M27.8571 0H2.13616C0.957589 0 0 0.970982 0 2.16295V27.8371C0 29.029 0.957589 30 2.13616 30H27.8571C29.0357 30 30 29.029 30 27.8371V2.16295C30 0.970982 29.0357 0 27.8571 0ZM9.06696 25.7143H4.62054V11.3973H9.07366V25.7143H9.06696ZM6.84375 9.44196C5.41741 9.44196 4.26562 8.28348 4.26562 6.86384C4.26562 5.4442 5.41741 4.28571 6.84375 4.28571C8.26339 4.28571 9.42187 5.4442 9.42187 6.86384C9.42187 8.29018 8.27009 9.44196 6.84375 9.44196ZM25.7344 25.7143H21.2879V18.75C21.2879 17.0893 21.2545 14.9531 18.9777 14.9531C16.6607 14.9531 16.3058 16.7612 16.3058 18.6295V25.7143H11.8594V11.3973H16.125V13.3527H16.1853C16.7812 12.2277 18.2344 11.0424 20.3973 11.0424C24.8973 11.0424 25.7344 14.0089 25.7344 17.8661V25.7143Z" fill="currentColor"/>
</g>

<g id="fa-mastodon">
    <!--! Font Awesome Free 6.3.0 by @fontawesome - https://fontawesome.com License - https://fontawesome.com/license/free (Icons: CC BY 4.0, Fonts: SIL OFL 1.1, Code: MIT License) Copyright 2023 Fonticons, Inc. -->
    <path d="M27.0695 10.5188C27.0695 4.22781 22.9461 2.38324 22.9461 2.38324C18.8997 0.525725 8.15328 0.545142 4.14571 2.38324C4.14571 2.38324 0.0216376 4.22781 0.0216376 10.5188C0.0216376 18.0071 -0.405526 27.3076 6.8582 29.2298C9.48008 29.9224 11.733 30.0712 13.5459 29.9677C16.8344 29.7864 18.6796 28.7962 18.6796 28.7962L18.5696 26.408C18.5696 26.408 16.2196 27.1458 13.5783 27.0617C10.9629 26.971 8.20635 26.7769 7.77725 23.5667C7.73746 23.2685 7.718 22.9679 7.719 22.667C13.2611 24.0197 17.9871 23.256 19.288 23.1007C22.9202 22.667 26.0838 20.4277 26.487 18.3825C27.1213 15.1593 27.0695 10.5188 27.0695 10.5188ZM22.2076 18.6219H19.1896V11.2307C19.1896 8.01404 15.0474 7.89106 15.0474 11.6773V15.7224H12.0489V11.6766C12.0489 7.89042 7.90669 8.01339 7.90669 11.2301V18.6213H4.88224C4.88224 10.7188 4.54569 9.04894 6.07377 7.29498C7.75006 5.42452 11.2399 5.30155 12.7938 7.68978L13.5446 8.95185L14.2954 7.68978C15.8558 5.2886 19.3514 5.43746 21.0154 7.29498C22.55 9.06188 22.2063 10.7252 22.2063 18.6213L22.2076 18.6219Z" fill="currentColor"/>
</g>

<g id="cc-logo">
    <path d="M14.972 0c4.196 0 7.769 1.465 10.715 4.393A14.426 14.426 0 0128.9 9.228C29.633 11.04 30 12.964 30 15c0 2.054-.363 3.978-1.085 5.772a13.77 13.77 0 01-3.2 4.754 15.417 15.417 0 01-4.983 3.322A14.932 14.932 0 0114.973 30c-1.982 0-3.88-.38-5.692-1.14a15.087 15.087 0 01-4.875-3.293c-1.437-1.437-2.531-3.058-3.281-4.862A14.71 14.71 0 010 15c0-1.982.38-3.888 1.138-5.719a15.062 15.062 0 013.308-4.915C7.303 1.456 10.812 0 14.972 0zm.055 2.706c-3.429 0-6.313 1.196-8.652 3.589a12.896 12.896 0 00-2.72 4.031 11.814 11.814 0 00-.95 4.675c0 1.607.316 3.156.95 4.646a12.428 12.428 0 002.72 3.992 12.362 12.362 0 003.99 2.679c1.483.616 3.037.924 4.662.924 1.607 0 3.164-.312 4.675-.937a12.954 12.954 0 004.084-2.705c2.339-2.286 3.508-5.152 3.508-8.6 0-1.66-.304-3.231-.91-4.713a11.994 11.994 0 00-2.651-3.965c-2.412-2.41-5.314-3.616-8.706-3.616zm-.188 9.803l-2.01 1.045c-.215-.445-.477-.758-.79-.937-.312-.178-.602-.268-.87-.268-1.34 0-2.01.884-2.01 2.652 0 .803.17 1.446.509 1.928.34.482.84.724 1.5.724.876 0 1.492-.43 1.85-1.286l1.847.937a4.407 4.407 0 01-1.634 1.728c-.696.42-1.464.63-2.303.63-1.34 0-2.42-.41-3.242-1.233-.821-.82-1.232-1.964-1.232-3.428 0-1.428.416-2.562 1.246-3.401.83-.84 1.879-1.26 3.147-1.26 1.858 0 3.188.723 3.992 2.17zm8.652 0l-1.983 1.045c-.214-.445-.478-.758-.79-.937-.313-.178-.613-.268-.897-.268-1.34 0-2.01.884-2.01 2.652 0 .803.17 1.446.51 1.928.338.482.838.724 1.5.724.874 0 1.49-.43 1.847-1.286l1.875.937a4.606 4.606 0 01-1.66 1.728c-.696.42-1.455.63-2.277.63-1.357 0-2.441-.41-3.253-1.233-.814-.82-1.22-1.964-1.22-3.428 0-1.428.415-2.562 1.246-3.401.83-.84 1.879-1.26 3.147-1.26 1.857 0 3.18.723 3.965 2.17z" fill="currentColor"/>
</g>

<g id="cc-by">
    <path d="M14.973 0c4.213 0 7.768 1.446 10.66 4.34C28.544 7.25 30 10.803 30 15c0 4.215-1.43 7.723-4.287 10.526C22.678 28.51 19.098 30 14.973 30c-4.054 0-7.571-1.474-10.553-4.42C1.474 22.633 0 19.107 0 15S1.474 7.34 4.42 4.34C7.313 1.446 10.83 0 14.973 0zm.054 2.706c-3.41 0-6.295 1.196-8.652 3.589-2.447 2.5-3.67 5.402-3.67 8.706 0 3.321 1.214 6.196 3.642 8.624 2.429 2.429 5.322 3.642 8.679 3.642 3.339 0 6.25-1.222 8.732-3.67 2.358-2.267 3.536-5.133 3.536-8.598 0-3.41-1.197-6.311-3.589-8.705-2.392-2.392-5.285-3.588-8.678-3.588zm4.018 8.57v6.134H17.33v7.286h-4.66V17.41h-1.714v-6.134a.93.93 0 01.28-.683.933.933 0 01.684-.281h6.161c.25 0 .474.093.67.28a.912.912 0 01.294.684zM12.91 7.42c0-1.41.696-2.116 2.09-2.116s2.09.705 2.09 2.116c0 1.393-.697 2.09-2.09 2.09-1.393 0-2.09-.697-2.09-2.09z" fill="currentColor"/>
</g>

</svg>