<svg width="300" height="44" viewBox="0 0 300 44" fill="none" xmlns="http://www.w3.org/2000/svg">
<path fill-rule="evenodd" clip-rule="evenodd" d="M5.9329 9.79915C9.6688 6.02463 14.5032 4 19.997 4C25.4907 4 30.4352 6.02463 34.2806 9.85397C38.0715 13.6291 40.049 18.553 40.049 23.969C40.049 29.4399 38.0715 34.309 34.3356 37.9745C30.3802 41.8586 25.2705 43.9375 19.997 43.9375C14.7234 43.9375 9.72385 41.8586 5.87848 38.0293C2.03247 34.1993 0 29.2754 0 23.969C0 18.7169 2.08752 13.6839 5.9329 9.79915ZM31.6989 12.4256C28.5673 9.30701 24.5567 7.61132 20.052 7.61132C15.5473 7.61132 11.5912 9.25282 8.51462 12.3707C5.38302 15.5441 3.62517 19.6469 3.62517 23.969C3.62517 28.2363 5.38302 32.3392 8.51462 35.4583C11.6456 38.5769 15.7112 40.2726 20.0514 40.2726C24.3365 40.2726 28.5116 38.5763 31.7533 35.4035C34.8298 32.394 36.4232 28.455 36.4232 23.969C36.4232 19.5379 34.7748 15.4893 31.6989 12.4256ZM19.7932 20.6507C18.6605 18.594 16.728 17.7754 14.4849 17.7754C11.2197 17.7754 8.62093 20.0754 8.62093 23.969C8.62093 27.9282 11.0641 30.1627 14.5962 30.1627C16.8622 30.1627 18.794 28.9238 19.8603 27.0441L17.3722 25.7832C16.8166 27.1103 15.9731 27.5085 14.9069 27.5085C13.063 27.5085 12.2195 25.9823 12.2195 23.9697C12.2195 21.957 12.9301 20.4302 14.9069 20.4302C15.4397 20.4302 16.5059 20.7182 17.128 22.0446L19.7932 20.6507ZM26.0532 17.7754C28.2964 17.7754 30.2283 18.594 31.3616 20.6507L28.6963 22.0446C28.0737 20.7182 27.0075 20.4302 26.4747 20.4302C24.4979 20.4302 23.7866 21.957 23.7866 23.9697C23.7866 25.9823 24.6314 27.5085 26.4747 27.5085C27.5409 27.5085 28.385 27.1103 28.94 25.7832L31.428 27.0441C30.3618 28.9238 28.4299 30.1627 26.164 30.1627C22.6325 30.1627 20.1887 27.9282 20.1887 23.969C20.1887 20.0754 22.7881 17.7754 26.0532 17.7754Z" fill="black"/>
<path d="M44.1733 35V15.3636H49.4531V18.7898H49.6577C50.0156 17.571 50.6165 16.6506 51.4602 16.0284C52.304 15.3977 53.2756 15.0824 54.375 15.0824C54.6477 15.0824 54.9418 15.0994 55.2571 15.1335C55.5724 15.1676 55.8494 15.2145 56.0881 15.2741V20.1065C55.8324 20.0298 55.4787 19.9616 55.027 19.902C54.5753 19.8423 54.1619 19.8125 53.7869 19.8125C52.9858 19.8125 52.2699 19.9872 51.6392 20.3366C51.017 20.6776 50.5227 21.1548 50.1562 21.7685C49.7983 22.3821 49.6193 23.0895 49.6193 23.8906V35H44.1733ZM64.4186 35.3835C62.3987 35.3835 60.66 34.9744 59.2027 34.1562C57.7538 33.3295 56.6373 32.1619 55.8532 30.6534C55.0691 29.1364 54.6771 27.3423 54.6771 25.2713C54.6771 23.2514 55.0691 21.4787 55.8532 19.9531C56.6373 18.4276 57.741 17.2386 59.1643 16.3864C60.5961 15.5341 62.2751 15.108 64.2012 15.108C65.4967 15.108 66.7027 15.3168 67.8191 15.7344C68.9441 16.1435 69.9242 16.7614 70.7595 17.5881C71.6032 18.4148 72.2595 19.4545 72.7282 20.7074C73.197 21.9517 73.4313 23.4091 73.4313 25.0795V26.5753H56.8504V23.2003H68.3049C68.3049 22.4162 68.1345 21.7216 67.7936 21.1165C67.4527 20.5114 66.9796 20.0384 66.3745 19.6974C65.7779 19.348 65.0833 19.1733 64.2907 19.1733C63.464 19.1733 62.7311 19.3651 62.0919 19.7486C61.4612 20.1236 60.9669 20.6307 60.6089 21.2699C60.251 21.9006 60.0677 22.6037 60.0592 23.3793V26.5881C60.0592 27.5597 60.2382 28.3991 60.5961 29.1065C60.9626 29.8139 61.4782 30.3594 62.143 30.7429C62.8078 31.1264 63.5961 31.3182 64.5081 31.3182C65.1132 31.3182 65.6671 31.233 66.17 31.0625C66.6728 30.892 67.1032 30.6364 67.4612 30.2955C67.8191 29.9545 68.0919 29.5369 68.2794 29.0426L73.3163 29.375C73.0606 30.5852 72.5365 31.642 71.7438 32.5455C70.9598 33.4403 69.9456 34.1392 68.7012 34.642C67.4654 35.1364 66.0379 35.3835 64.4186 35.3835ZM90.8034 20.9631L85.8176 21.2699C85.7324 20.8437 85.5491 20.4602 85.2679 20.1193C84.9866 19.7699 84.6159 19.4929 84.1557 19.2884C83.704 19.0753 83.1628 18.9688 82.5321 18.9688C81.6883 18.9688 80.9767 19.1477 80.3971 19.5057C79.8176 19.8551 79.5278 20.3239 79.5278 20.9119C79.5278 21.3807 79.7153 21.777 80.0903 22.1009C80.4653 22.4247 81.1088 22.6847 82.0207 22.8807L85.5747 23.5966C87.4838 23.9886 88.9071 24.6193 89.8446 25.4886C90.7821 26.358 91.2508 27.5 91.2508 28.9148C91.2508 30.2017 90.8716 31.331 90.1131 32.3026C89.3631 33.2741 88.3318 34.0327 87.0193 34.5781C85.7153 35.1151 84.2111 35.3835 82.5065 35.3835C79.9071 35.3835 77.8361 34.8423 76.2935 33.7599C74.7594 32.669 73.8602 31.1861 73.596 29.3111L78.9525 29.0298C79.1145 29.8224 79.5065 30.4276 80.1287 30.8452C80.7508 31.2543 81.5477 31.4588 82.5193 31.4588C83.4738 31.4588 84.2409 31.2756 84.8204 30.9091C85.4085 30.5341 85.7068 30.0526 85.7153 29.4645C85.7068 28.9702 85.498 28.5653 85.0889 28.25C84.6798 27.9261 84.0491 27.679 83.1969 27.5085L79.7963 26.831C77.8787 26.4474 76.4511 25.7827 75.5136 24.8366C74.5846 23.8906 74.1202 22.6847 74.1202 21.2188C74.1202 19.9574 74.4611 18.8707 75.1429 17.9588C75.8332 17.0469 76.8006 16.3438 78.0449 15.8494C79.2977 15.3551 80.7636 15.108 82.4426 15.108C84.9227 15.108 86.8744 15.6321 88.2977 16.6804C89.7295 17.7287 90.5648 19.1562 90.8034 20.9631ZM101.032 35.3835C99.0465 35.3835 97.3292 34.9616 95.8803 34.1179C94.44 33.2656 93.3278 32.081 92.5437 30.5639C91.7596 29.0384 91.3676 27.2699 91.3676 25.2585C91.3676 23.2301 91.7596 21.4574 92.5437 19.9403C93.3278 18.4148 94.44 17.2301 95.8803 16.3864C97.3292 15.5341 99.0465 15.108 101.032 15.108C103.018 15.108 104.731 15.5341 106.172 16.3864C107.62 17.2301 108.737 18.4148 109.521 19.9403C110.305 21.4574 110.697 23.2301 110.697 25.2585C110.697 27.2699 110.305 29.0384 109.521 30.5639C108.737 32.081 107.62 33.2656 106.172 34.1179C104.731 34.9616 103.018 35.3835 101.032 35.3835ZM101.058 31.1648C101.961 31.1648 102.716 30.9091 103.321 30.3977C103.926 29.8778 104.382 29.1705 104.689 28.2756C105.004 27.3807 105.162 26.3622 105.162 25.2202C105.162 24.0781 105.004 23.0597 104.689 22.1648C104.382 21.2699 103.926 20.5625 103.321 20.0426C102.716 19.5227 101.961 19.2628 101.058 19.2628C100.146 19.2628 99.3789 19.5227 98.7568 20.0426C98.1431 20.5625 97.6786 21.2699 97.3633 22.1648C97.0565 23.0597 96.9031 24.0781 96.9031 25.2202C96.9031 26.3622 97.0565 27.3807 97.3633 28.2756C97.6786 29.1705 98.1431 29.8778 98.7568 30.3977C99.3789 30.9091 100.146 31.1648 101.058 31.1648ZM124.311 26.6392V15.3636H129.757V35H124.528V31.4332H124.323C123.88 32.5838 123.143 33.5085 122.112 34.2074C121.089 34.9062 119.84 35.2557 118.366 35.2557C117.054 35.2557 115.899 34.9574 114.902 34.3608C113.904 33.7642 113.125 32.9162 112.562 31.8168C112.008 30.7173 111.727 29.4006 111.718 27.8665V15.3636H117.164V26.8949C117.173 28.054 117.484 28.9702 118.098 29.6435C118.711 30.3168 119.534 30.6534 120.565 30.6534C121.221 30.6534 121.835 30.5043 122.406 30.206C122.977 29.8991 123.437 29.4474 123.786 28.8509C124.144 28.2543 124.319 27.517 124.311 26.6392ZM131.593 35V15.3636H136.873V18.7898H137.077C137.435 17.571 138.036 16.6506 138.88 16.0284C139.724 15.3977 140.695 15.0824 141.795 15.0824C142.067 15.0824 142.361 15.0994 142.677 15.1335C142.992 15.1676 143.269 15.2145 143.508 15.2741V20.1065C143.252 20.0298 142.898 19.9616 142.447 19.902C141.995 19.8423 141.581 19.8125 141.206 19.8125C140.405 19.8125 139.689 19.9872 139.059 20.3366C138.437 20.6776 137.942 21.1548 137.576 21.7685C137.218 22.3821 137.039 23.0895 137.039 23.8906V35H131.593ZM151.761 35.3835C149.75 35.3835 148.02 34.9574 146.571 34.1051C145.131 33.2443 144.023 32.0511 143.247 30.5256C142.48 29 142.097 27.2443 142.097 25.2585C142.097 23.2472 142.484 21.483 143.26 19.9659C144.044 18.4403 145.156 17.2514 146.597 16.3991C148.037 15.5384 149.75 15.108 151.736 15.108C153.449 15.108 154.949 15.419 156.236 16.0412C157.523 16.6634 158.541 17.5369 159.291 18.6619C160.041 19.7869 160.455 21.108 160.531 22.625H155.392C155.247 21.6449 154.864 20.8565 154.242 20.2599C153.628 19.6548 152.822 19.3523 151.825 19.3523C150.982 19.3523 150.244 19.5824 149.614 20.0426C148.992 20.4943 148.506 21.1548 148.156 22.0241C147.807 22.8935 147.632 23.946 147.632 25.1818C147.632 26.4347 147.803 27.5 148.143 28.3778C148.493 29.2557 148.983 29.9247 149.614 30.3849C150.244 30.8452 150.982 31.0753 151.825 31.0753C152.447 31.0753 153.006 30.9474 153.5 30.6918C154.003 30.4361 154.416 30.0653 154.74 29.5795C155.072 29.0852 155.29 28.4929 155.392 27.8026H160.531C160.446 29.3026 160.037 30.6236 159.304 31.7656C158.58 32.8991 157.578 33.7855 156.3 34.4247C155.021 35.0639 153.509 35.3835 151.761 35.3835ZM170.447 35.3835C168.427 35.3835 166.688 34.9744 165.231 34.1562C163.782 33.3295 162.666 32.1619 161.882 30.6534C161.098 29.1364 160.706 27.3423 160.706 25.2713C160.706 23.2514 161.098 21.4787 161.882 19.9531C162.666 18.4276 163.769 17.2386 165.193 16.3864C166.625 15.5341 168.304 15.108 170.23 15.108C171.525 15.108 172.731 15.3168 173.848 15.7344C174.973 16.1435 175.953 16.7614 176.788 17.5881C177.632 18.4148 178.288 19.4545 178.757 20.7074C179.225 21.9517 179.46 23.4091 179.46 25.0795V26.5753H162.879V23.2003H174.333C174.333 22.4162 174.163 21.7216 173.822 21.1165C173.481 20.5114 173.008 20.0384 172.403 19.6974C171.806 19.348 171.112 19.1733 170.319 19.1733C169.492 19.1733 168.76 19.3651 168.12 19.7486C167.49 20.1236 166.995 20.6307 166.637 21.2699C166.279 21.9006 166.096 22.6037 166.088 23.3793V26.5881C166.088 27.5597 166.267 28.3991 166.625 29.1065C166.991 29.8139 167.507 30.3594 168.171 30.7429C168.836 31.1264 169.625 31.3182 170.536 31.3182C171.142 31.3182 171.696 31.233 172.198 31.0625C172.701 30.892 173.132 30.6364 173.49 30.2955C173.848 29.9545 174.12 29.5369 174.308 29.0426L179.345 29.375C179.089 30.5852 178.565 31.642 177.772 32.5455C176.988 33.4403 175.974 34.1392 174.73 34.642C173.494 35.1364 172.066 35.3835 170.447 35.3835ZM191.905 35.3707C190.652 35.3707 189.536 35.1534 188.556 34.7188C187.576 34.2756 186.8 33.6236 186.229 32.7628C185.667 31.8935 185.385 30.8111 185.385 29.5156C185.385 28.4247 185.586 27.5085 185.986 26.767C186.387 26.0256 186.932 25.429 187.623 24.9773C188.313 24.5256 189.097 24.1847 189.975 23.9545C190.861 23.7244 191.79 23.5625 192.762 23.4688C193.904 23.3494 194.824 23.2386 195.523 23.1364C196.222 23.0256 196.729 22.8636 197.044 22.6506C197.36 22.4375 197.517 22.1222 197.517 21.7045V21.6278C197.517 20.8182 197.262 20.1918 196.75 19.7486C196.248 19.3054 195.532 19.0838 194.603 19.0838C193.623 19.0838 192.843 19.3011 192.263 19.7358C191.684 20.1619 191.3 20.6989 191.113 21.3466L186.076 20.9375C186.331 19.7443 186.834 18.7131 187.584 17.8438C188.334 16.9659 189.302 16.2926 190.486 15.8239C191.679 15.3466 193.06 15.108 194.628 15.108C195.719 15.108 196.763 15.2358 197.76 15.4915C198.766 15.7472 199.657 16.1435 200.432 16.6804C201.216 17.2173 201.834 17.9077 202.286 18.7514C202.738 19.5866 202.963 20.5881 202.963 21.7557V35H197.799V32.277H197.645C197.33 32.8906 196.908 33.4318 196.38 33.9006C195.851 34.3608 195.216 34.723 194.475 34.9872C193.733 35.2429 192.877 35.3707 191.905 35.3707ZM193.465 31.6122C194.266 31.6122 194.973 31.4545 195.587 31.1392C196.201 30.8153 196.682 30.3807 197.032 29.8352C197.381 29.2898 197.556 28.6719 197.556 27.9815V25.8977C197.385 26.0085 197.151 26.1108 196.853 26.2045C196.563 26.2898 196.235 26.3707 195.868 26.4474C195.502 26.5156 195.135 26.5795 194.769 26.6392C194.402 26.6903 194.07 26.7372 193.772 26.7798C193.133 26.8736 192.574 27.0227 192.097 27.2273C191.62 27.4318 191.249 27.7088 190.985 28.0582C190.721 28.3991 190.588 28.8253 190.588 29.3366C190.588 30.0781 190.857 30.6449 191.394 31.0369C191.939 31.4205 192.63 31.6122 193.465 31.6122ZM204.669 35V15.3636H209.948V18.7898H210.153C210.511 17.571 211.112 16.6506 211.956 16.0284C212.799 15.3977 213.771 15.0824 214.87 15.0824C215.143 15.0824 215.437 15.0994 215.752 15.1335C216.068 15.1676 216.345 15.2145 216.583 15.2741V20.1065C216.328 20.0298 215.974 19.9616 215.522 19.902C215.071 19.8423 214.657 19.8125 214.282 19.8125C213.481 19.8125 212.765 19.9872 212.135 20.3366C211.512 20.6776 211.018 21.1548 210.652 21.7685C210.294 22.3821 210.115 23.0895 210.115 23.8906V35H204.669ZM224.837 35.3835C222.826 35.3835 221.096 34.9574 219.647 34.1051C218.206 33.2443 217.099 32.0511 216.323 30.5256C215.556 29 215.172 27.2443 215.172 25.2585C215.172 23.2472 215.56 21.483 216.336 19.9659C217.12 18.4403 218.232 17.2514 219.672 16.3991C221.113 15.5384 222.826 15.108 224.812 15.108C226.525 15.108 228.025 15.419 229.312 16.0412C230.599 16.6634 231.617 17.5369 232.367 18.6619C233.117 19.7869 233.53 21.108 233.607 22.625H228.468C228.323 21.6449 227.939 20.8565 227.317 20.2599C226.704 19.6548 225.898 19.3523 224.901 19.3523C224.057 19.3523 223.32 19.5824 222.689 20.0426C222.067 20.4943 221.581 21.1548 221.232 22.0241C220.883 22.8935 220.708 23.946 220.708 25.1818C220.708 26.4347 220.878 27.5 221.219 28.3778C221.569 29.2557 222.059 29.9247 222.689 30.3849C223.32 30.8452 224.057 31.0753 224.901 31.0753C225.523 31.0753 226.081 30.9474 226.576 30.6918C227.079 30.4361 227.492 30.0653 227.816 29.5795C228.148 29.0852 228.366 28.4929 228.468 27.8026H233.607C233.522 29.3026 233.113 30.6236 232.38 31.7656C231.655 32.8991 230.654 33.7855 229.376 34.4247C228.097 35.0639 226.584 35.3835 224.837 35.3835ZM240.02 23.6477V35H234.574V8.81818H239.867V18.8281H240.097C240.54 17.669 241.256 16.7614 242.244 16.1051C243.233 15.4403 244.473 15.108 245.965 15.108C247.328 15.108 248.517 15.4062 249.531 16.0028C250.554 16.5909 251.347 17.4389 251.909 18.5469C252.48 19.6463 252.761 20.9631 252.753 22.4972V35H247.307V23.4688C247.315 22.2585 247.009 21.3168 246.386 20.6435C245.773 19.9702 244.912 19.6335 243.804 19.6335C243.063 19.6335 242.406 19.7912 241.835 20.1065C241.273 20.4219 240.83 20.8821 240.506 21.4872C240.19 22.0838 240.028 22.804 240.02 23.6477ZM254.519 35V15.3636H259.965V35H254.519ZM257.255 12.8324C256.445 12.8324 255.75 12.5639 255.171 12.027C254.6 11.4815 254.314 10.8295 254.314 10.071C254.314 9.32102 254.6 8.67756 255.171 8.14062C255.75 7.59517 256.445 7.32244 257.255 7.32244C258.064 7.32244 258.755 7.59517 259.326 8.14062C259.905 8.67756 260.195 9.32102 260.195 10.071C260.195 10.8295 259.905 11.4815 259.326 12.027C258.755 12.5639 258.064 12.8324 257.255 12.8324ZM280.114 15.3636L273.249 35H267.113L260.248 15.3636H266.001L270.079 29.4134H270.283L274.349 15.3636H280.114ZM288.697 35.3835C286.677 35.3835 284.939 34.9744 283.481 34.1562C282.032 33.3295 280.916 32.1619 280.132 30.6534C279.348 29.1364 278.956 27.3423 278.956 25.2713C278.956 23.2514 279.348 21.4787 280.132 19.9531C280.916 18.4276 282.02 17.2386 283.443 16.3864C284.875 15.5341 286.554 15.108 288.48 15.108C289.775 15.108 290.981 15.3168 292.098 15.7344C293.223 16.1435 294.203 16.7614 295.038 17.5881C295.882 18.4148 296.538 19.4545 297.007 20.7074C297.476 21.9517 297.71 23.4091 297.71 25.0795V26.5753H281.129V23.2003H292.584C292.584 22.4162 292.413 21.7216 292.072 21.1165C291.731 20.5114 291.258 20.0384 290.653 19.6974C290.057 19.348 289.362 19.1733 288.569 19.1733C287.743 19.1733 287.01 19.3651 286.37 19.7486C285.74 20.1236 285.245 20.6307 284.887 21.2699C284.53 21.9006 284.346 22.6037 284.338 23.3793V26.5881C284.338 27.5597 284.517 28.3991 284.875 29.1065C285.241 29.8139 285.757 30.3594 286.422 30.7429C287.086 31.1264 287.875 31.3182 288.787 31.3182C289.392 31.3182 289.946 31.233 290.449 31.0625C290.951 30.892 291.382 30.6364 291.74 30.2955C292.098 29.9545 292.37 29.5369 292.558 29.0426L297.595 29.375C297.339 30.5852 296.815 31.642 296.022 32.5455C295.238 33.4403 294.224 34.1392 292.98 34.642C291.744 35.1364 290.316 35.3835 288.697 35.3835Z" fill="black"/>
</svg>
